# Blender v2.76 (sub 0) OBJ File: 'plane.blend'
# www.blender.org
mtllib plane.mtl
o Cube
v 25.000000 -0.010000 -24.999998
v 25.000000 -0.010000 25.000000
v -25.000004 -0.010000 24.999996
v -24.999990 -0.010000 -25.000010
v 25.000011 0.010000 -24.999987
v 24.999983 0.010000 25.000015
v -25.000010 0.010000 24.999990
v -24.999998 0.010000 -25.000000
vt 0.000000 0.000000
vt 1.000000 0.000000
vt 1.000000 1.000000
vt 0.000000 1.000000
vt 0.000000 -1.000000
vt 0.000000 -2.000000
vt 1.000000 -2.000000
vt 1.000000 -1.000000
vt 2.000000 0.000000
vt 2.000000 1.000000
vt 1.000000 2.000000
vt 0.000000 2.000000
vt -1.000000 0.000000
vt -1.000000 1.000000
vn 0.000000 -1.000000 0.000000
vn 0.000000 1.000000 -0.000000
vn 1.000000 0.000400 0.000000
vn -0.000000 -0.000200 1.000000
vn -1.000000 -0.000400 -0.000000
vn 0.000000 0.000500 -1.000000
usemtl Material.005
s off
f 1/1/1 2/2/1 3/3/1 4/4/1
f 5/5/2 8/6/2 7/7/2 6/8/2
f 1/1/3 5/5/3 6/8/3 2/2/3
f 2/2/4 6/9/4 7/10/4 3/3/4
f 3/3/5 7/11/5 8/12/5 4/4/5
f 5/13/6 1/1/6 4/4/6 8/14/6
